:SAMPLES-PER-SECOND 30
:FULLY-SPECIFIED
:DEGREES
99
root  3.79962 40.7732 2.50925 -37.1197 -86.7788 34.1898
RightUpLeg  -22.8557 4.8732 -9.02663
RightLeg  46.4223 -15.3989 -16.9274
RightFoot  29.2506 -1.24215 3.707
RightToes  7.56698e-010 0 -3.6325e-017
Spine  18.0155 -3.9121 -5.80722
Spine1  3.9608 -6.78942 7.61662
HEad  -10.9136 6.13761 -6.33032
LeftShoulder1  3.07672 -11.3066 -13.8259
LeftArm  -11.9871 -14.7128 -64.5553
LeftForeArm  5.94469 1.1352 -12.2723
LeftHand  -1.1155 -0.354899 22.445
RightShoulder  1.66621 4.40881 14.2029
RightArm  -29.5037 20.0845 60.6416
RightForeArm  13.8634 -7.53473 3.91305
RightHand  -1.75408 3.84387 -22.0802
LeftUpLeg  -5.41995 2.88763 -0.10156
LeftLeg  16.0869 -1.20445 1.1691
LeftFoot  3.18046 1.36853 -10.8895
LeftToes  -3.13779e-010 -2.47553e-011 -5.36621e-011
100
root  3.74985 41.5912 2.7087 -25.155 -87.1389 23.0368
RightUpLeg  -26.1401 -0.75426 -6.02513
RightLeg  45.0028 -14.2008 -15.0032
RightFoot  30.3861 -1.38745 4.27127
RightToes  7.56698e-010 0 -3.6325e-017
Spine  18.4887 -4.4854 -5.22139
Spine1  1.98609 -7.60998 10.6138
HEad  -10.3987 8.68346 -8.80712
LeftShoulder1  3.14408 -11.9344 -13.3695
LeftArm  -5.72176 -18.2073 -65.1764
LeftForeArm  7.39476 -5.10182 -12.3338
LeftHand  -1.38286 -1.16063 24.4027
RightShoulder  1.5986 4.29248 13.6047
RightArm  -30.4397 16.4615 58.9119
RightForeArm  16.054 -6.15282 4.13016
RightHand  -1.62361 4.11984 -19.9107
LeftUpLeg  -3.29329 4.41983 0.685172
LeftLeg  15.6994 -1.26401 0.914198
LeftFoot  6.06761 1.9498 -12.9934
LeftToes  -3.13779e-010 -2.47553e-011 -5.36621e-011
101
root  3.51353 41.9757 2.93407 -60.4288 -87.9264 58.3181
RightUpLeg  -28.5491 -2.85446 -3.96043
RightLeg  43.0546 -8.58429 -8.78853
RightFoot  26.6427 -3.02432 9.2946
RightToes  7.56698e-010 0 -3.6325e-017
Spine  17.5382 -4.6218 -5.22172
Spine1  1.96458 -7.80472 11.3901
HEad  -10.2513 10.9952 -10.14
LeftShoulder1  3.13665 -11.113 -14.6028
LeftArm  7.26509 -20.0032 -64.421
LeftForeArm  -1.80297 -18.7638 -8.78708
LeftHand  -1.61303 -1.61978 26.5481
RightShoulder  1.6426 3.90297 15.4509
RightArm  -27.6645 10.326 55.6471
RightForeArm  15.9646 1.08016 5.93252
RightHand  -1.96025 5.48374 -20.9735
LeftUpLeg  0.104511 4.27695 0.0876778
LeftLeg  20.558 0.272672 0.70911
LeftFoot  3.92238 1.91331 -14.3984
LeftToes  -3.13779e-010 -2.47553e-011 -5.36621e-011
102
root  3.08025 41.7958 3.17372 -136.648 -86.1465 134.272
RightUpLeg  -30.2478 -0.441418 -3.19679
RightLeg  41.3955 -3.6852 -3.73607
RightFoot  25.6827 -2.98607 9.4953
RightToes  7.56698e-010 0 -3.6325e-017
Spine  15.0255 -4.90946 -5.50378
Spine1  3.32304 -7.97229 10.3747
HEad  -10.2628 14.327 -11.503
LeftShoulder1  2.89839 -8.97243 -16.5342
LeftArm  4.22611 -19.1103 -61.471
LeftForeArm  0.595405 -35.0674 -7.31625
LeftHand  -1.69224 -1.74097 27.3506
RightShoulder  1.8242 3.79462 18.5046
RightArm  -21.0801 4.78331 52.9342
RightForeArm  9.38848 21.0409 6.75499
RightHand  -2.31901 6.86578 -22.0483
LeftUpLeg  5.33605 4.28474 -2.38229
LeftLeg  24.1318 0.203158 0.429201
LeftFoot  1.35115 1.59756 -14.3642
LeftToes  -3.13779e-010 -2.47553e-011 -5.36621e-011
103
root  2.45801 41.1662 3.39684 -153.111 -81.9721 151.427
RightUpLeg  -32.2162 6.06583 -3.33318
RightLeg  41.0434 -3.06887 -3.13379
RightFoot  28.3502 -1.18185 3.81701
RightToes  7.56698e-010 0 -3.6325e-017
Spine  11.4461 -5.69187 -5.0722
Spine1  4.05876 -8.39058 9.16089
HEad  -10.0234 19.1209 -14.431
LeftShoulder1  2.56487 -6.86755 -18.1432
LeftArm  -7.16403 -14.6796 -56.9791
LeftForeArm  12.6259 -55.2511 -15.9144
LeftHand  -1.46503 -1.11741 25.9183
RightShoulder  1.98907 4.04567 19.9861
RightArm  -22.8862 -1.00426 52.0953
RightForeArm  8.28978 41.6874 9.1739
RightHand  -2.23234 7.30203 -20.4957
LeftUpLeg  10.4815 3.27528 -6.17137
LeftLeg  22.9212 0.734606 0.890986
LeftFoot  0.864892 1.33937 -12.5657
LeftToes  -3.13779e-010 -2.47553e-011 -5.36621e-011
